# xmcd CD database file
#
# Track frame offsets:
#	150
#	43435
#	59297
#	96107
#	109495
#	139000
#	178637
#
# Disc length: 2679 seconds
#
# Revision: 2
# Processed by: cddbd v1.5.2PL0 Copyright (c) Steve Scherf et al.
# Submitted via: CDex 1.70beta2
#
DISCID=650a7507
DTITLE=Britney Spears - BONUS DISC
DYEAR=2004
DGENRE=Pop
TTITLE0=TOXIC - ARMAND VAN HELDEN REMIX EDIT
TTITLE1=EVERYTIME - HI-BIAS RADIO REMIX
TTITLE2=BREATHE ON ME - JACQUES LU CONT MIX
TTITLE3=OUTRAGEOUS - JUNKIE XL'S DANCEHALL MIX
TTITLE4=STRONGER (MIGUEL 'MIGS' VOCAL MIX)
TTITLE5=I'M A SLAVE 4 U (THUNDERPUSS CLUB MIX)
TTITLE6=CHRIS COX MEGAMIX
EXTD=YEAR: 2004
EXTT0=
EXTT1=
EXTT2=
EXTT3=
EXTT4=
EXTT5=
EXTT6=
PLAYORDER=
